<?xml version="1.0" encoding="UTF-8"?>
<svg version="1.1" viewBox="0 0 2000 2000" width="500" height="500" xmlns="http://www.w3.org/2000/svg">
<path transform="translate(0)" d="m0 0h2e3v2e3h-2e3z" fill="#FCFCFC"/>
<path transform="translate(996,994)" d="m0 0h18l18 4 16 6 7 5-2 6-11 22-5 1-10-5-14-4h-12l-8 4-4 6v6l2 5 4 2 21 11 16 8 13 9 9 10 5 9 1-102h36l1 7v57l50 1 2-1v-64h37l1 3v47l-1 15 4-14 4-10 7-11 11-13 12-9 15-7 6-2 7-1h15l20 2 15 5 11 6 12 11 2 4-15 16-7 8h-3l-7-8-10-7-9-3h-16l-10 4-6 4-7 7-6 10-4 13v23l4 13 7 11 7 7 9 5 8 2h10l11-3 11-7 6-10 2-9-2-1-35-1v-28l67-1 6-22 8-15 9-11 7-7 13-9 10-5 14-4 8-1h15l15 3 11 4 11 6 10 8 9 9 9 14 6 14 3 13v25l-3 14-5 14-10 15-14 14-11 7-15 6-13 3h-21l-17-4-9-4-11-6-12-11-9-11-6-11-2-3-5 12-7 10-8 9-10 7-17 8-17 4h-20l-15-4-16-8-13-11-10-12-8-14-5-14-1-4 1 18-1 46h-34l-2-1-1-58-1-6h-50l-1 1v63l-1 1h-35l-1-1-1-33-4 10-8 11-8 6-10 5-10 3-16 2h-13l-14-2-15-5-17-9-5-3v16h-35l-1-1v-17h-2v18h-92l-1-1v-162h36l1 2v128h55l2 1-1-101v-28l1-2h36l1 1 1 136 3-2 6-12 6-9 4 1 10 7 16 7 9 2 12-1 7-3 4-5 1-2v-8l-4-6-15-9-19-9-10-7-6-5-8-11-4-10-1-9 2-13 4-10 8-10 9-7 14-7z" fill="#F7822F"/>
<path transform="translate(1121,648)" d="m0 0h12l20 1 20 3 24 7 5 2h5l4-6 7-3 6 1 10 7 3 6-1 10 15 10 14 11 12 11 8 8 9 11 10 14 10 18 8 17 7 21 4 17 3 21v33l-4 27-6 22-3 10-6-2-26-12-27-13-28-13-34-16-40-19-30-14-72-34-76-36-28-13 1-5 6-11 10-14 11-12 14-14 11-9 9-7 15-9 16-8 19-7 17-5 21-4z" fill="#FC5C28"/>
<path transform="translate(582,997)" d="m0 0h58l14 3 12 5 12 7 10 9 9 10 9 16 3 7v-55l1-2h93v32l-1 1-54 1v30l52 1 1 31-1 2h-53l1 31 54 1 1 1v32h-92l-1-1-1-52-1-1-9 17-7 9-6 7-14 10-14 7-20 4-29 1-7 1-27 1h-90l-166-1-8-4-4-7v-6l6-8 4-2 6-1h258v-11l-1-1-171-1-6-3-6-8v-7l4-6 11-5 23-1h146l-1-10-119-1-6-3-4-5-2-4v-6l3-6 5-4 4-1h120v-16h-57l-9-2-5-5-3-6 1-6 6-7 4-2 6-1h57z" fill="#C3140F"/>
<path transform="translate(1407,994)" d="m0 0h15l15 3 11 4 11 6 10 8 9 9 9 14 6 14 3 13v25l-3 14-5 14-10 15-14 14-11 7-15 6-13 3h-21l-17-4-9-4-11-6-12-11-9-11-6-11-2-3-5 12-7 10-8 9-10 7-17 8-17 4h-20l-15-4-16-8-13-11-10-12-8-14-5-14-2-12v-19l3-15 6-16 7-11 11-13 12-9 15-7 6-2 7-1h15l20 2 15 5 11 6 12 11 2 4-15 16-7 8h-3l-7-8-10-7-9-3h-16l-10 4-6 4-7 7-6 10-4 13v23l4 13 7 11 7 7 9 5 8 2h10l11-3 11-7 6-10 2-9-2-1-35-1v-28l67-1 6-22 8-15 9-11 7-7 13-9 10-5 14-4z" fill="#26779E"/>
<path transform="translate(919,753)" d="m0 0 10 1 24 11 36 17 27 13 20 9 16 8 34 16 27 13 28 13 50 24 34 16 27 13 28 13 37 18 21 10 7 8 2 4v8l-4 8-5 5-4 1h-7l-14-5-31-15-28-13-40-19-28-13-31-15-28-13-34-16-29-14-28-13-40-19-28-13-40-19-15-8-7-8-1-2v-11l3-6 6-5z" fill="#FC5E29"/>
<path transform="translate(1060,997)" d="m0 0h36l1 7v57l50 1 2-1v-64h37l1 3v47l-1 13v39l1 15-1 46h-34l-2-1-1-58-1-6h-50l-1 1v63l-1 1h-35l-1-1-1-33-1-4 1-14-2-8-1-5 3 4z" fill="#FE9757"/>
<path transform="translate(710,997)" d="m0 0h93v32l-1 1-54 1v30l52 1 1 31-1 2h-53l1 31 54 1 1 1v32h-92l-1-1-1-52-2-1 2-13v-94z" fill="#FD5F2A"/>
<path transform="translate(882,801)" d="m0 0h36l28 13 21 10 5 4v6l-1 1-63-1-122-4-85-3-44-2-51-2-41-2-3-3v-3l5-1 61-2 121-5 81-4z" fill="#C0C1C2"/>
<path transform="translate(808,997)" d="m0 0h36l1 2v128h55l1 9v24h-92l-1-1z" fill="#FC5E29"/>
<path transform="translate(1e3 856)" d="m0 0h31l26 12 23 11 3 4-1 5-3 1-66-1-45-2-73-2-41-2-93-3-60-3-5-2v-5l10-1 70-3 76-3 62-3z" fill="#C0C1C2"/>
<path transform="translate(1123,912)" d="m0 0h28l27 12 12 5 10 6 1 6-1 2h-17l-106-3-87-3-51-2-68-2-21-1-9-1-3-2 1-5 2-1 220-9z" fill="#C0C1C2"/>
<path transform="translate(1242,967)" d="m0 0h25l25 11 17 8 10 7v3l-5 2h-16l1 3-18-4-14-1h-15l-12 2v-1l-8-1-45-2-86-2-46-2-68-2-12-1-3-2v-7l9-1 100-4 82-3z" fill="#C0C1C2"/>
<path transform="translate(1407,1030)" d="m0 0h13l12 3 9 6 7 7 6 13 2 8 1 11-2 16-4 11-7 11-8 6-9 4-4 1h-16l-10-3-10-6-7-8-5-11-2-9-1-16 3-15 6-12 9-10 12-6z" fill="#FBFBFB"/>
<path transform="translate(1050,641)" d="m0 0h14l4 4-1 3-16 8-14 6-15 9-3 1h-33l-161-6-63-3-34-2-2-1v-5l6-1 52-2 60-3 115-5 51-2z" fill="#C0C1C2"/>
<path transform="translate(941,711)" d="m0 0h25l1 1v6l-13 18-5 7h-26l-76-3-95-4-97-6-20-1-1-4 51-1 1-1 152-8 72-3z" fill="#C0C1C2"/>
<path transform="translate(621,1030)" d="m0 0 12 1 13 4 11 8 8 11 5 13v21l-4 13-6 10-7 7-12 6-8 2h-13l-1-1v-94z" fill="#FCFCFC"/>
<path transform="translate(516,1194)" d="m0 0 11 1 6 4 5 6 2 8v7l-4 8-7 6-8 3-9-1-8-5-4-5-2-4v-13l5-8 6-5z" fill="#C71D13"/>
<path transform="translate(574,1194)" d="m0 0 10 1 8 6 4 7 1 10-3 9-8 7-9 3-8-1-9-6-5-8-1-8 3-9 7-8 4-2z" fill="#C71C13"/>
<path transform="translate(689,1195)" d="m0 0h23l6 3 5 5 3 7v11l-4 8-6 5-6 2h-20l-1-1z" fill="#C71C13"/>
<path transform="translate(613,1195)" d="m0 0h23l6 3 5 5 3 7v11l-4 8-6 5-6 2h-20l-1-1z" fill="#C71C13"/>
<path transform="translate(947,1195)" d="m0 0h23l5 3 4 8v5l-6 8-1 4 6 10v3h-9l-5-5-5-9-3-1 1 5v10h-10l-1-1v-39z" fill="#C81E13"/>
<path transform="translate(1157,1195)" d="m0 0h24l6 4 3 7-1 6-3 5-3 2 1 6 5 8v3h-9l-5-5-4-8v-2l-3 1v14h-10l-1-1z" fill="#C61C12"/>
<path transform="translate(1079,1194)" d="m0 0h8l6 3 4 6v4h-8l-6-3-4 1 1 3 14 6 4 5v8l-3 5-5 4-9 1-8-3-5-5v-6h7l7 4h4v-6l-8-2-6-3-4-5v-9l5-6z" fill="#C61C13"/>
<path transform="translate(1299,1195)" d="m0 0h15l6 4 4 5 1 5h-8l-7-4h-7l-5 4-1 2v8l4 6 7 1 10-5h7l-1 6-4 5-8 4h-12l-8-5-4-5-2-4v-14l4-6 7-6z" fill="#C61B12"/>
<path transform="translate(850,1194)" d="m0 0 9 1 8 21 2 6 2 1 1-8 6-18 2-2 9-1-1 8-7 20-5 13-1 1h-11l-4-6-12-34z" fill="#C71C12"/>
<path transform="translate(906,1194)" d="m0 0h16l8 1-1 9h-14v7h13v8l-6 1h-6l-1 7h14l1 1v7l-1 1h-25v-41z" fill="#C71C13"/>
<path transform="translate(1241,1194)" d="m0 0h2l-1 9-9 25-3 6-2 2h-11l-8-20-6-18v-3h10l3 8 6 18v2h2l3-12 5-15 1-1z" fill="#C61B12"/>
<path transform="translate(752,1194)" d="m0 0h15l1 5-1 5h-11l-3 1v6h13l1 7-2 1-10 1-2 1v5l8 1h6l1 8-1 1h-25v-41z" fill="#C81F14"/>
<path transform="translate(1353,1194)" d="m0 0h14v10h-15l1 7h13l1 7-2 1-13 1 1 6 14 1 1 1v7l-1 1h-25v-41z" fill="#C61B12"/>
<path transform="translate(1125,1194)" d="m0 0h14l1 9-4 1h-12l1 7h12l2 3-1 4-1 1-13 1 1 6 8 1h6l1 2v6l-1 1h-25v-40l1-1z" fill="#C92014"/>
<path transform="translate(466,1194)" d="m0 0h17l1 1v8l-4 1h-11l-1 5v2h12v8l-1 1h-11v16h-10l-1-1v-40z" fill="#CA2315"/>
<path transform="translate(1028,1194)" d="m0 0 2 1-3 9-9 18-1 11-1 3h-9l-1-1-1-14-8-16-4-7v-3h11l6 13v2h3l1-5 4-8 2-2z" fill="#C61B11"/>
<path transform="translate(785,1195)" d="m0 0h10l1 32 11 1 1 1v6l-1 1h-22l-1-1v-39z" fill="#C41710"/>
<path transform="translate(823,1195)" d="m0 0h11v40l-1 1h-9l-1-1z" fill="#C82014"/>
<path transform="translate(1260,1195)" d="m0 0h9l1 1v38l-1 2h-9l-1-1v-39z" fill="#CC291A"/>
<path transform="translate(572,1204)" d="m0 0h8l5 4 1 2v10l-5 6-2 1h-7l-6-5-1-3v-8l3-5z" fill="#FCFCFC"/>
<path transform="translate(515,1204)" d="m0 0h8l5 4 1 3v9l-5 6-2 1-9-1-4-4-1-3v-8l4-6z" fill="#FBFBFA"/>
<path transform="translate(701,1204)" d="m0 0h7l6 3 2 5-1 9-4 5-3 1h-8l-1-3v-9l1-10z" fill="#FBFBFA"/>
<path transform="translate(625,1204)" d="m0 0h7l5 3 3 5-1 9-5 5-2 1h-8l-1-3v-18z" fill="#FCFCFC"/>
<path transform="translate(901,999)" d="m0 0h1l1 9 1 151h-1v-17h-2l-1-6v-8h2l-1-101z" fill="#FF9757"/>
<path transform="translate(685,724)" d="m0 0h23v1l-26 2h-11l-5 1h-25v-2l6-1z" fill="#26779E"/>
<path transform="translate(957,1204)" d="m0 0h9l2 2v5l-3 2h-7l-2-3v-5z" fill="#FCFCFC"/>
<path transform="translate(1168,1204)" d="m0 0h9l2 2v5l-3 2h-8z" fill="#FCFBFA"/>
<path transform="translate(634,725)" d="m0 0h13v1h-6v2h13v1h-19z" fill="#BD9192"/>
</svg>
