<?xml version="1.0" encoding="UTF-8"?>
<svg version="1.1" viewBox="0 0 1948 828" width="487" height="207" xmlns="http://www.w3.org/2000/svg">
<path transform="translate(0)" d="m0 0h1948v828h-1948z" fill="#FCFCFC"/>
<path transform="translate(1102,120)" d="m0 0h24l29 3 30 9 6 2 2-6 8-4 7 1 8 5 5 6v7l-1 4 9 7 9 6 9 7 10 9 14 14 11 14 9 14 11 20 9 23 6 24 3 20v38l-3 21-8 29-2 6-6-2-33-15-29-14-28-13-140-66-38-18-40-19-30-14-23-11 1-6 6-11 10-13 11-13 11-11 11-9 13-10 17-10 17-8 30-10 21-4z" fill="#FD5C28"/>
<path transform="translate(711,468)" d="m0 0h51l25 1v33l-54 1-1 14v16h46l6 1 1 2v31l-52 1-1 1v29l55 1v33h-93l-1-1-1-53-9 18h-2l-4 8-7 6-4 4-4 3h-2v2l-11 6-10 4-14 3-39 2-3 1h-276l-8-2-5-5-3-4v-7l4-6 5-4 3-1 23-1h37l202 1-1-12h-165l-10-2-5-5-3-4v-9h2l1-4 11-6 4-1h166v-10l-121-1-3-1v-2l-4-2-4-6v-8l2-4 8-6 121-1v-15h-59l-8-3-5-6-1-2v-7l7-8 6-3h61v-8l1-1h60l16 4 16 8 10 8 8 7 2 5h2l6 10 7 14v-56z" fill="#B71410"/>
<path transform="translate(978,466)" d="m0 0h23l19 5 12 5 7 4-1 6-11 21-4 4-15-7-15-3-11 1-6 4-3 6 1 7 7 6 17 9 12 5 15 9 7 6 8 10 3 6v-100l3-2 35 1 1 64h50l1-64h38v54l-2 15v18l2 22v53l-1 1h-36l-1-1-1-63-51-1v65h-37l-2-30-5 10-10 11-16 8-12 3-5 1h-24l-19-4-17-8-9-6h-1l-1 15-59 1h-53l-19-1-1-8v-155l1-1 36 1 2 6v116l1 7 54 1v-129l1-1h37l1 81v54h2l6-11 7-10 5 1 10 7 16 7 4 1h14l9-3 5-8v-6l-4-6-9-6-16-8-15-8-10-9-6-7-5-10-2-10 1-13 4-11 7-10 10-9 14-7z" fill="#F48532"/>
<path transform="translate(1393,466)" d="m0 0h11l13 2 15 5 11 6 10 8 8 8 7 10 7 14 4 13 1 7v21l-3 16-5 13-8 13-9 10-9 8-14 8-15 5-11 2h-15l-16-3-15-6-14-9-10-10-7-10-7-13h-1l-3 10-6 11-6 7-10 8-10 6-12 5-17 4h-17l-16-4-16-8-9-7-5-4-11-14-8-16-4-12-2-16v-9l2-15 4-12 8-16 8-10 10-10 11-7 11-5 6-2h36l16 4 14 7 10 8 6 6-2 4-7 7-7 8-6 7-4-1-7-8-9-6-9-3h-17l-10 4-9 7-9 14-4 13-1 14 2 14 5 12 7 9 8 7 9 4 4 1h13l11-4 9-6 5-7 3-12-2-1-35-1v-28l67-1 6-21 7-14 10-13 11-10 11-7 14-6 9-2z" fill="#26759B"/>
<path transform="translate(902,225)" d="m0 0h8l10 4 64 30 40 19 29 14 28 13 27 13 28 13 33 16 28 13 29 14 22 10 16 8 35 17 22 10 6 5 4 8v8l-4 8-5 5-5 1h-7l-13-5-36-17-38-18-30-14-36-17-78-37-28-13-27-13-28-13-29-14-28-13-34-16-9-5-6-7-2-4v-8l3-7 5-5z" fill="#FE5F2A"/>
<path transform="translate(1045,468)" d="m0 0 36 1 1 64h50l1-64h38v54l-2 15v18l2 22v53l-1 1h-36l-1-1-1-63-51-1v65h-37l-2-30-2 3 1-7 2-11v-9l-3-11 3 3v-100z" fill="#FE9654"/>
<path transform="translate(711,468)" d="m0 0h51l25 1v33l-54 1-1 14v16h46l6 1 1 2v31l-52 1-1 1v29l55 1v33h-93l-1-1-1-53-1-3 2-14v-23l-1-13h1v-56z" fill="#FD5C28"/>
<path transform="translate(792,470)" d="m0 0h35l1 1 1 127 1 1 54 1 1 8v23l-6 2h-68l-19-1-1-8z" fill="#FD5D28"/>
<path transform="translate(887,273)" d="m0 0h14l16 8 13 6 16 8 9 5 1 1v5h-37l-186-6-71-3-58-2-12-1-32-1-13-1v-5l17-1 63-2 100-4 80-4z" fill="#BEBFC0"/>
<path transform="translate(1e3 328)" d="m0 0h12l13 5 29 14 12 6 2 3v3l-2 1h-32l-154-5-47-2-64-2-22-1-7-1-55-2-3-1-1-4 1-1 234-10z" fill="#BEBFC0"/>
<path transform="translate(1391,502)" d="m0 0h14l11 3 8 5 5 5 4 5 5 10 3 15v10l-2 12-5 12-8 11-9 6-10 3h-16l-13-4-8-6-8-10-4-12-2-13v-9l3-14 7-14 4-5 9-6 7-3z" fill="#FBFBFB"/>
<path transform="translate(1121,384)" d="m0 0h14l12 6 29 13 8 5v6h-36l-186-6-129-5-9-1-2-1 1-5 13-1 199-8z" fill="#BEBFC0"/>
<path transform="translate(1236,439)" d="m0 0h12l16 6 31 15 8 6-1 3h-76v-1l-74-3-65-2-122-4-8-2-1-1v-5l1-1 149-6z" fill="#BEBFC0"/>
<path transform="translate(1007,114)" d="m0 0h42l1 1v5l-30 14-14 8-10 2-32-1-113-4-77-3-31-2-26-1-7-1v-5l85-4 115-5 73-3z" fill="#BEBFC0"/>
<path transform="translate(910,184)" d="m0 0h40v5l-14 20-2 4-2 1h-36l-168-7-47-3-62-3-1-4 56-2 100-5 62-3z" fill="#BDBEBF"/>
<path transform="translate(603,503)" d="m0 0h11l17 4v2h3v2l4 1 5 5 2 5h2l1 5h2l4 14v17l-3 12-4 9h-2l-2 5-5 5-14 7-9 2h-11l-1-1z" fill="#FCFBFA"/>
<path transform="translate(555,666)" d="m0 0h10l7 3 5 5 4 8v10l-4 8-8 7-6 2h-7l-8-3-4-5-2-1v-3h-2l-2-6v-7l3-8h2v-3l8-6z" fill="#BD1D15"/>
<path transform="translate(498,666)" d="m0 0h10l6 2v2l5 2 4 7 1 4v9l-3 7-9 8-6 2-10-1-5-3-5-5-4-5-1-10 3-9 3-4h2l1-3z" fill="#BD1C14"/>
<path transform="translate(674,666)" d="m0 0h17l9 2 7 6 3 6v14l-4 7-8 6-3 1h-22v-41z" fill="#BD1D14"/>
<path transform="translate(598,666)" d="m0 0h18l8 2 3 2v2h2l5 9v13l-5 8-7 5-4 1h-21v-41z" fill="#BD1D14"/>
<path transform="translate(1142,666)" d="m0 0h17l9 2 4 4 2 6-1 7-5 5-1 5 6 10v3h-9l-4-4-4-6-2-5-2-1v17h-10l-1-1v-41z" fill="#BD1C14"/>
<path transform="translate(931,666)" d="m0 0h18l8 2 5 6 1 9-4 6-3 2 1 6 3 5 2 3v3h-10l-3-3-5-9-1-3h-3v16l-9-1-1-1v-40z" fill="#BD1C14"/>
<path transform="translate(792,468)" d="m0 0 36 1 2 6v116l1 7 54 1v-129l1-1h37l1 81v54h2l2-4 1 2-5 10-2-4-1-136 1-2h-35l1 130v32l-4-1v-31h-54l-2-2-1-127-35-1v112h-1v-113z" fill="#FF9755"/>
<path transform="translate(1286,666)" d="m0 0h8l8 3 5 4 2 4v4h-9l-3-1-1-2-7-1-6 2-2 3v12h2v2h2v2l12-1v-2l5-2h7l-1 7-11 8h-14l-5-3v-2h-2l-6-8-1-11 2-7h2v-3l6-5z" fill="#BD1D14"/>
<path transform="translate(1062,666)" d="m0 0h10l6 3 3 5v6l-9-1-4-3-5-1 2 6 11 4 5 5 2 4-1 5-4 6-4 3-10 1-7-3-4-3-2-7 1-1h10l2 3 7 1-1-5-9-3-8-6-2-4 1-7 6-7z" fill="#BD1C14"/>
<path transform="translate(833,666)" d="m0 0h10l3 8 6 17 2 3 5-18 4-9 1-1h9l-1 9-7 20-5 11-2 3h-7l-4-1-8-19-7-20z" fill="#BE1F15"/>
<path transform="translate(888,666)" d="m0 0h25l1 1v7l-1 2h-14v7h13v8l-13 1v7h15v9l-14 1h-11l-1-1z" fill="#BF1F15"/>
<path transform="translate(1187,666)" d="m0 0h8l4 4 5 16 2 8 2 1 2-9 6-19 2-1h9l-1 9-4 12-3 7-5 13-1 1-10 1-4-4-12-34z" fill="#BD1D15"/>
<path transform="translate(726,666)" d="m0 0h25l1 1v9h-15l2 6 11 1 1 1v6l-1 1-14 1 2 6 13 1 1 1v8l-5 1-21-1z" fill="#C12216"/>
<path transform="translate(1099,666)" d="m0 0h24l1 1v9h-15v7h13v8l-14 1 1 6 14 1 1 2v6l-1 1h-25v-41z" fill="#BF2015"/>
<path transform="translate(1327,666)" d="m0 0h24v9l-14 1 2 6 11 1v7l-1 1-13 1 1 6 14 1 1 1v7l-1 1h-25v-41z" fill="#BE1D14"/>
<path transform="translate(977,666)" d="m0 0h10l3 4 4 10 3 1 1-5 5-8 3-2h8l-1 5-4 8-2 6h-2l-1 4-2 5-2 14-1 1h-7l-2-2-1-12-11-24-2-4z" fill="#BE1E15"/>
<path transform="translate(442,666)" d="m0 0h26v9l-16 1 1 6 11 1v8l-1 1h-11v16h-11v-41z" fill="#BF1D14"/>
<path transform="translate(768,667)" d="m0 0h11v33h13v8l-11 1h-10l-3-1z" fill="#C01E14"/>
<path transform="translate(808,666)" d="m0 0h10v42h-10l-1-1v-40z" fill="#C11F14"/>
<path transform="translate(1243,667)" d="m0 0h11v40l-1 1h-9l-1-1z" fill="#C02115"/>
<path transform="translate(711,468)" d="m0 0h51l25 1v25h-1v-24l-15 1h-76l1 49v31h-1l-3-22 1-10v-50z" fill="#FC924C"/>
<path transform="translate(557,676)" d="m0 0 8 1 4 4 1 2v8l-4 6-4 2-8-1v-2l-4-2-1-9 3-7z" fill="#FCFBFB"/>
<path transform="translate(500,676)" d="m0 0 9 1 4 7-1 9-3 4h-2v2l-9-1-5-5-1-8 3-7z" fill="#FDFBFA"/>
<path transform="translate(684,676)" d="m0 0 10 1 5 5v12l-4 4-9 1-2-1z" fill="#FCFAF9"/>
<path transform="translate(609,676)" d="m0 0 9 1 5 5v10l-1 3-8 4h-5l-1-1v-21z" fill="#FCFCFC"/>
<path transform="translate(784,536)" d="m0 0h1v31l-52 1-1 1v29l55 1v33l-3-1h2v-31h-55l-2-3v-23l1-7 1-1h53z" fill="#FF9755"/>
<path transform="translate(694,564)" d="m0 0h1v67h86v1h-87l-1-1-1-53-1-3z" fill="#FE9654"/>
<path transform="translate(786,498)" d="m0 0 1 4-54 1-1 14v16h46l6 1-1 2-52-1-2-3v-25l2-6 16-1 39 1z" fill="#FF9755"/>
<path transform="translate(1152,676)" d="m0 0h10l1 1v6l-4 2h-6l-1-1z" fill="#FDF7F3"/>
<path transform="translate(941,676)" d="m0 0h9l2 3-1 4-3 2-7-1z" fill="#FDFDFD"/>
<path transform="translate(986,167)" d="m0 0 2 1-28 28v-3l12-13 7-7z" fill="#FC7C3B"/>
<path transform="translate(618,197)" d="m0 0h27l-3 2-24 1z" fill="#847987"/>
<path transform="translate(695,520)" d="m0 0h1v31h-1l-2-13v-10l1-1z" fill="#FA873F"/>
</svg>
